# xmcd CD database file
#
# Track frame offsets:
#	150
#	70050
#	141637
#	209672
#
# Disc length: 4583 seconds
#
# Revision: 0
# Processed by: cddbd v1.5.2PL0 Copyright (c) Steve Scherf et al.
# Submitted via: CDex 1.51
#
DISCID=4211e504
DTITLE=Aardvark Jazz Orchestra - Psalms and Elegies
DYEAR=1997
DGENRE=Jazz
TTITLE0=Don Cherry's Song of Beauty
TTITLE1=Other Angels/Other Voices
TTITLE2=Tiananmen Elegy
TTITLE3=Psalms
EXTD=YEAR: 1997
EXTT0=
EXTT1=
EXTT2=
EXTT3=
PLAYORDER=
